<svg width="216" height="187" viewBox="0 0 216 187" fill="none" xmlns="http://www.w3.org/2000/svg">
<path d="M63.6908 186.995L79.1067 187L96.393 153.794L89.9139 140.977L101.923 122.594H113.514L125.315 140.977L118.726 153.794L137.311 186.962L152.579 186.712L159.66 174.156L118.726 103.787L96.393 103.667L55.9786 173.737L63.6908 186.995Z" fill="black"/>
<path d="M216 76.649L208.296 63.3288L170.826 64.998L162.937 77.0041L140.974 75.8204L135.179 65.8067L145.237 46.4213L159.659 45.7042L179.161 13.0647L171.31 0L156.869 0.160591L116.245 70.7077L127.307 90.0616L208.346 89.9405L216 76.649Z" fill="black"/>
<path d="M0 76.649L7.70364 63.3288L45.1744 64.998L53.0625 77.0041L75.0257 75.8204L80.8214 65.8067L70.7629 46.4213L56.3411 45.7042L36.8391 13.0647L44.6899 0L59.1314 0.160591L99.7546 70.7077L88.6925 90.0616L7.65366 89.9405L0 76.649Z" fill="black"/>
</svg>
